<svg xmlns="http://www.w3.org/2000/svg" viewBox="0 0 24 24"><path d="M12 0C5.4 0 0 5.4 0 12s5.4 12 12 12 12-5.4 12-12S18.6 0 12 0M9.3 5.3h-.1c-.2 0-.5.1-.7.2-.7.3-1.2 1-1.2 1.8v1.8c0 .3 0 .6-.1.9 0 .3-.1.5-.2.8-.2.5-.5.9-1 1.3.4.3.8.8 1 1.3.1.3.2.5.2.8s.1.6.1.9v1.8c0 .3 0 .5.1.8.1.2.2.4.4.6s.4.3.6.4.5.2.8.2h.1V20h-.1c-.4 0-.8-.1-1.2-.2s-.7-.4-1-.8c-.3-.3-.5-.6-.7-1-.1-.4-.2-.7-.3-1.1v-2.4c0-.3-.1-.5-.2-.8-.1-.2-.2-.4-.4-.6s-.4-.3-.6-.4-.5-.2-.7-.2H4v-1.3h.1c.3 0 .5-.1.7-.2.5-.2.8-.6 1-1 .2-.1.2-.4.2-.6V7c0-.4.1-.7.3-1.1.2-.3.4-.7.7-.9.3-.3.6-.5 1-.7Q8.6 4 9.2 4h.1zM20 12.7h-.1c-.3 0-.5.1-.7.2-.5.2-.8.6-1 1-.2.2-.2.5-.2.7V17c0 .4-.1.8-.3 1.1-.1.4-.4.7-.7 1s-.6.5-1 .7-.8.2-1.2.2h-.1v-1.3h.1c.3 0 .5-.1.8-.2.7-.3 1.2-1 1.2-1.8v-1.8c0-.3 0-.6.1-.9 0-.3.1-.5.2-.8.2-.5.5-.9 1-1.3-.4-.3-.8-.8-1-1.3-.1-.3-.2-.5-.2-.8s-.1-.6-.1-.9V7.1c0-.3 0-.5-.1-.8-.1-.2-.2-.4-.4-.6s-.4-.3-.6-.4-.5-.2-.7-.2h-.1V4h.1c.4 0 .8.1 1.2.2.4.2.7.4 1 .7s.5.6.7 1c.1.4.2.7.3 1.1v2.4c0 .3.1.5.2.8.1.2.2.4.4.6s.4.3.6.4.5.2.7.2H20z" fill="#24272d"/></svg>
