<svg version="1.1" xmlns="http://www.w3.org/2000/svg" viewBox="0 0 24 24"><path fill="#f3f4f6" d="M12,0C5.4,0,0,5.4,0,12c0,6.6,5.4,12,12,12c6.6,0,12-5.4,12-12C24,5.4,18.6,0,12,0z M9.3,5.3H9.2 C9,5.3,8.7,5.4,8.5,5.5c-0.7,0.3-1.2,1-1.2,1.8c0,0.3,0,0.6,0,0.9c0,0.3,0,0.6,0,0.9c0,0.3,0,0.6-0.1,0.9c0,0.3-0.1,0.5-0.2,0.8 c-0.2,0.5-0.5,0.9-1,1.3c0.4,0.3,0.8,0.8,1,1.3c0.1,0.3,0.2,0.5,0.2,0.8c0,0.3,0.1,0.6,0.1,0.9c0,0.3,0,0.6,0,0.9c0,0.3,0,0.6,0,0.9 c0,0.3,0,0.5,0.1,0.8c0.1,0.2,0.2,0.4,0.4,0.6c0.2,0.2,0.4,0.3,0.6,0.4c0.2,0.1,0.5,0.2,0.8,0.2h0.1V20H9.2c-0.4,0-0.8-0.1-1.2-0.2 S7.3,19.4,7,19c-0.3-0.3-0.5-0.6-0.7-1v0c-0.1-0.4-0.2-0.7-0.3-1.1v0c0-0.4,0-0.8,0-1.2c0-0.4,0-0.8,0-1.2c0-0.3-0.1-0.5-0.2-0.8 l0,0c-0.1-0.2-0.2-0.4-0.4-0.6l0,0c-0.2-0.2-0.4-0.3-0.6-0.4l0,0c-0.2-0.1-0.5-0.2-0.7-0.2H4v-1.3h0.1c0.3,0,0.5-0.1,0.7-0.2 c0.5-0.2,0.8-0.6,1-1v0C6,9.9,6,9.6,6,9.4C6,9,6,8.6,6,8.2c0-0.4,0-0.8,0-1.2v0c0-0.4,0.1-0.7,0.3-1.1v0C6.5,5.6,6.7,5.2,7,5 c0.3-0.3,0.6-0.5,1-0.7C8.4,4.1,8.8,4,9.2,4h0.1V5.3z M20,12.7h-0.1c-0.3,0-0.5,0.1-0.7,0.2c-0.5,0.2-0.8,0.6-1,1v0 C18,14.1,18,14.4,18,14.6c0,0.4,0,0.8,0,1.2c0,0.4,0,0.8,0,1.2v0c0,0.4-0.1,0.8-0.3,1.1v0c-0.1,0.4-0.4,0.7-0.7,1 c-0.3,0.3-0.6,0.5-1,0.7S15.2,20,14.8,20h-0.1v-1.3h0.1c0.3,0,0.5-0.1,0.8-0.2c0.7-0.3,1.2-1,1.2-1.8c0-0.3,0-0.6,0-0.9 c0-0.3,0-0.6,0-0.9c0-0.3,0-0.6,0.1-0.9c0-0.3,0.1-0.5,0.2-0.8c0.2-0.5,0.5-0.9,1-1.3c-0.4-0.3-0.8-0.8-1-1.3 c-0.1-0.3-0.2-0.5-0.2-0.8c0-0.3-0.1-0.6-0.1-0.9c0-0.3,0-0.6,0-0.9c0-0.3,0-0.6,0-0.9c0-0.3,0-0.5-0.1-0.8 c-0.1-0.2-0.2-0.4-0.4-0.6c-0.2-0.2-0.4-0.3-0.6-0.4c-0.2-0.1-0.5-0.2-0.7-0.2h-0.1V4h0.1c0.4,0,0.8,0.1,1.2,0.2 c0.4,0.2,0.7,0.4,1,0.7c0.3,0.3,0.5,0.6,0.7,1v0c0.1,0.4,0.2,0.7,0.3,1.1v0c0,0.4,0,0.8,0,1.2c0,0.4,0,0.8,0,1.2 c0,0.3,0.1,0.5,0.2,0.8v0c0.1,0.2,0.2,0.4,0.4,0.6l0,0c0.2,0.2,0.4,0.3,0.6,0.4l0,0c0.2,0.1,0.5,0.2,0.7,0.2H20V12.7z"/></svg>